<mxfile host="app.diagrams.net" agent="Mozilla/5.0 (Macintosh; Intel Mac OS X 10_15_7) AppleWebKit/537.36 (KHTML, like Gecko) Chrome/127.0.0.0 Safari/537.36" version="24.7.17">
  <diagram name="Page-1" id="c4acf3e9-155e-7222-9cf6-157b1a14988f">
    <mxGraphModel dx="1103" dy="724" grid="1" gridSize="10" guides="1" tooltips="1" connect="1" arrows="1" fold="1" page="1" pageScale="1" pageWidth="850" pageHeight="1100" background="none" math="0" shadow="0">
      <root>
        <mxCell id="0" />
        <mxCell id="1" parent="0" />
        <mxCell id="bPye6WeQD-SdXCSKzYyQ-9" value="" style="rounded=0;whiteSpace=wrap;html=1;fillColor=none;dashed=1;dashPattern=8 8;strokeWidth=1;" vertex="1" parent="1">
          <mxGeometry x="100" y="220" width="560" height="380" as="geometry" />
        </mxCell>
        <mxCell id="bPye6WeQD-SdXCSKzYyQ-15" style="edgeStyle=orthogonalEdgeStyle;rounded=0;orthogonalLoop=1;jettySize=auto;html=1;exitX=0.5;exitY=1;exitDx=0;exitDy=0;strokeWidth=2;entryX=0.5;entryY=0;entryDx=0;entryDy=0;" edge="1" parent="1" source="bPye6WeQD-SdXCSKzYyQ-1" target="bPye6WeQD-SdXCSKzYyQ-9">
          <mxGeometry relative="1" as="geometry">
            <mxPoint x="380" y="200" as="targetPoint" />
          </mxGeometry>
        </mxCell>
        <mxCell id="bPye6WeQD-SdXCSKzYyQ-3" value="API Gateway" style="html=1;whiteSpace=wrap;fillColor=default;" vertex="1" parent="1">
          <mxGeometry x="120" y="300" width="520" height="50" as="geometry" />
        </mxCell>
        <mxCell id="bPye6WeQD-SdXCSKzYyQ-12" style="edgeStyle=orthogonalEdgeStyle;rounded=0;orthogonalLoop=1;jettySize=auto;html=1;exitX=0.5;exitY=1;exitDx=0;exitDy=0;entryX=0.5;entryY=0;entryDx=0;entryDy=0;strokeWidth=2;" edge="1" parent="1" source="bPye6WeQD-SdXCSKzYyQ-4" target="bPye6WeQD-SdXCSKzYyQ-22">
          <mxGeometry relative="1" as="geometry" />
        </mxCell>
        <mxCell id="bPye6WeQD-SdXCSKzYyQ-13" style="edgeStyle=orthogonalEdgeStyle;rounded=0;orthogonalLoop=1;jettySize=auto;html=1;exitX=0.5;exitY=1;exitDx=0;exitDy=0;entryX=0.5;entryY=0;entryDx=0;entryDy=0;strokeWidth=2;" edge="1" parent="1" source="bPye6WeQD-SdXCSKzYyQ-5" target="bPye6WeQD-SdXCSKzYyQ-22">
          <mxGeometry relative="1" as="geometry" />
        </mxCell>
        <mxCell id="bPye6WeQD-SdXCSKzYyQ-14" style="edgeStyle=orthogonalEdgeStyle;rounded=0;orthogonalLoop=1;jettySize=auto;html=1;exitX=0.5;exitY=1;exitDx=0;exitDy=0;entryX=0.5;entryY=0;entryDx=0;entryDy=0;strokeWidth=2;" edge="1" parent="1" source="bPye6WeQD-SdXCSKzYyQ-6" target="bPye6WeQD-SdXCSKzYyQ-22">
          <mxGeometry relative="1" as="geometry" />
        </mxCell>
        <mxCell id="bPye6WeQD-SdXCSKzYyQ-10" value="Daily Digest" style="rounded=0;whiteSpace=wrap;html=1;fillColor=none;dashed=1;strokeColor=default;dashPattern=8 8;" vertex="1" parent="1">
          <mxGeometry x="100" y="220" width="110" height="20" as="geometry" />
        </mxCell>
        <mxCell id="bPye6WeQD-SdXCSKzYyQ-24" style="edgeStyle=orthogonalEdgeStyle;rounded=0;orthogonalLoop=1;jettySize=auto;html=1;exitX=0.5;exitY=1;exitDx=0;exitDy=0;strokeWidth=4;" edge="1" parent="1" source="bPye6WeQD-SdXCSKzYyQ-22" target="bPye6WeQD-SdXCSKzYyQ-3">
          <mxGeometry relative="1" as="geometry" />
        </mxCell>
        <mxCell id="bPye6WeQD-SdXCSKzYyQ-22" value="«interface»&lt;br&gt;&lt;b&gt;Website&lt;/b&gt;" style="html=1;whiteSpace=wrap;strokeWidth=2;" vertex="1" parent="1">
          <mxGeometry x="260" y="220" width="240" height="40" as="geometry" />
        </mxCell>
        <mxCell id="bPye6WeQD-SdXCSKzYyQ-23" value="" style="group;strokeWidth=5;" vertex="1" connectable="0" parent="1">
          <mxGeometry x="120" y="50" width="520" height="50" as="geometry" />
        </mxCell>
        <mxCell id="bPye6WeQD-SdXCSKzYyQ-1" value="Reader" style="html=1;whiteSpace=wrap;strokeWidth=2;" vertex="1" parent="bPye6WeQD-SdXCSKzYyQ-23">
          <mxGeometry width="120" height="50" as="geometry" />
        </mxCell>
        <mxCell id="bPye6WeQD-SdXCSKzYyQ-4" value="Reader" style="html=1;whiteSpace=wrap;strokeWidth=2;" vertex="1" parent="bPye6WeQD-SdXCSKzYyQ-23">
          <mxGeometry x="130" width="120" height="50" as="geometry" />
        </mxCell>
        <mxCell id="bPye6WeQD-SdXCSKzYyQ-5" value="Reader" style="html=1;whiteSpace=wrap;strokeWidth=2;" vertex="1" parent="bPye6WeQD-SdXCSKzYyQ-23">
          <mxGeometry x="260" width="120" height="50" as="geometry" />
        </mxCell>
        <mxCell id="bPye6WeQD-SdXCSKzYyQ-6" value="Admin" style="html=1;whiteSpace=wrap;strokeWidth=2;" vertex="1" parent="bPye6WeQD-SdXCSKzYyQ-23">
          <mxGeometry x="400" width="120" height="50" as="geometry" />
        </mxCell>
        <mxCell id="bPye6WeQD-SdXCSKzYyQ-25" value="" style="group" vertex="1" connectable="0" parent="1">
          <mxGeometry x="130" y="490" width="500" height="80" as="geometry" />
        </mxCell>
        <mxCell id="bPye6WeQD-SdXCSKzYyQ-17" value="" style="shape=cylinder3;whiteSpace=wrap;html=1;boundedLbl=1;backgroundOutline=1;size=15;" vertex="1" parent="bPye6WeQD-SdXCSKzYyQ-25">
          <mxGeometry width="60" height="80" as="geometry" />
        </mxCell>
        <mxCell id="bPye6WeQD-SdXCSKzYyQ-18" value="" style="shape=cylinder3;whiteSpace=wrap;html=1;boundedLbl=1;backgroundOutline=1;size=15;" vertex="1" parent="bPye6WeQD-SdXCSKzYyQ-25">
          <mxGeometry x="220" width="60" height="80" as="geometry" />
        </mxCell>
        <mxCell id="bPye6WeQD-SdXCSKzYyQ-19" value="" style="shape=cylinder3;whiteSpace=wrap;html=1;boundedLbl=1;backgroundOutline=1;size=15;" vertex="1" parent="bPye6WeQD-SdXCSKzYyQ-25">
          <mxGeometry x="330" width="60" height="80" as="geometry" />
        </mxCell>
        <mxCell id="bPye6WeQD-SdXCSKzYyQ-20" value="" style="shape=cylinder3;whiteSpace=wrap;html=1;boundedLbl=1;backgroundOutline=1;size=15;" vertex="1" parent="bPye6WeQD-SdXCSKzYyQ-25">
          <mxGeometry x="440" width="60" height="80" as="geometry" />
        </mxCell>
        <mxCell id="bPye6WeQD-SdXCSKzYyQ-21" value="" style="shape=cylinder3;whiteSpace=wrap;html=1;boundedLbl=1;backgroundOutline=1;size=15;" vertex="1" parent="bPye6WeQD-SdXCSKzYyQ-25">
          <mxGeometry x="110" width="60" height="80" as="geometry" />
        </mxCell>
      </root>
    </mxGraphModel>
  </diagram>
</mxfile>
